<?xml version="1.0" encoding="UTF-8"?>
<svg width="773px" height="152px" viewBox="0 0 773 152" version="1.1" xmlns="http://www.w3.org/2000/svg" xmlns:xlink="http://www.w3.org/1999/xlink">
    <!-- Generator: Sketch 64 (93537) - https://sketch.com -->
    <title>Durazno_logotipo_blanco</title>
    <desc>Created with Sketch.</desc>
    <g id="Page-1" stroke="none" stroke-width="1" fill="none" fill-rule="evenodd">
        <g id="Durazno_logotipo_blanco" fill="#FFFFFF">
            <path d="M732.319224,48.40248 C733.194504,54.39672 737.470104,54.1044 740.369784,53.00904 C748.722744,49.854 760.680984,46.03368 765.912504,37.49088 C766.016664,37.32456 766.114104,37.14816 766.204824,36.97512 C771.738744,26.25 772.229304,14.8092 768.718104,4.5948 C767.994024,2.48976 765.235464,1.87656 763.723464,3.5112 C754.322184,13.69032 733.071864,7.96656 731.225544,30.98928 C731.217202,31.0884 731.215464,31.17744 731.218824,31.27656 C731.269224,32.65248 731.711064,44.23104 732.319224,48.40248" id="Fill-2"></path>
            <path d="M734.466768,117.829656 L734.465088,117.829656 C719.839008,129.151176 697.476528,123.761736 690.541488,104.596296 C690.097968,103.364856 689.765328,102.091416 689.551968,100.799496 C687.749328,89.913096 691.861968,79.693656 700.058688,73.349976 C708.976128,66.446856 720.766368,65.758056 730.184448,70.611576 C735.790608,73.501176 740.561808,78.359736 743.374128,85.037736 C744.345168,87.344376 744.971808,89.795496 745.228848,92.285256 C746.277168,102.450936 742.181328,111.858936 734.466768,117.829656 M770.912688,109.513656 C775.223568,92.543976 771.572928,75.209736 761.093088,61.663896 C761.069568,61.635336 761.046048,61.606776 761.024208,61.576536 C757.481088,57.018696 751.182768,55.629336 745.946208,58.058616 C743.495088,59.194296 740.975088,60.170376 738.397968,60.981816 C734.974128,62.058696 731.294928,60.336696 729.929088,57.018696 C728.937888,54.616296 728.102928,52.165176 727.425888,49.677096 C725.873568,43.983576 720.647088,39.995256 714.753648,40.253976 C701.658048,40.826856 688.622928,46.023096 678.272448,56.200536 C671.075328,63.276696 665.922768,72.269736 663.508608,82.070856 C659.359008,98.909496 663.034848,116.075736 673.432368,129.515736 C678.462288,136.017336 684.730368,141.215256 691.825008,144.872616 C697.506768,147.799176 703.716048,149.739576 710.246208,150.571176 C727.234368,152.736696 744.022608,147.095256 756.464688,134.777496 C763.466928,127.844136 768.488448,119.066136 770.912688,109.513656" id="Fill-4"></path>
            <path d="M213.60528,134.034096 L211.96392,134.034096 C208.82064,139.090896 204.58704,143.087616 199.25808,146.024256 C193.92912,148.960896 187.84752,150.430896 181.01664,150.430896 C168.30912,150.430896 158.84568,146.534976 152.62968,138.748176 C146.41032,130.959696 143.304,120.577296 143.304,107.594256 L143.304,50.081136 C143.304,48.224736 144.80928,46.721136 146.664,46.721136 L166.79376,46.721136 C168.64848,46.721136 170.15376,48.224736 170.15376,50.081136 L170.15376,104.314896 C170.15376,111.559056 171.75816,116.918256 174.97032,120.404256 C178.17912,123.888576 182.86128,125.630736 189.0084,125.630736 C192.69936,125.630736 195.94344,124.846176 198.74568,123.273696 C201.54456,121.704576 203.93688,119.582736 205.91928,116.918256 C207.89832,114.255456 209.4036,111.112176 210.42672,107.491776 C211.4532,103.873056 211.96392,100.010736 211.96392,95.911536 L211.96392,50.081136 C211.96392,48.224736 213.4692,46.721136 215.32392,46.721136 L235.45536,46.721136 C237.31008,46.721136 238.81536,48.224736 238.81536,50.081136 L238.81536,143.791536 C238.81536,145.646256 237.31008,147.151536 235.45536,147.151536 L216.96528,147.151536 C215.11056,147.151536 213.60528,145.646256 213.60528,143.791536 L213.60528,134.034096 Z" id="Fill-6"></path>
            <path d="M265.129032,46.720968 L283.619112,46.720968 C285.473832,46.720968 286.979112,48.226248 286.979112,50.080968 L286.979112,60.658248 L288.617112,60.658248 C289.848552,58.198728 291.486552,55.944168 293.537832,53.894568 C295.587432,51.844968 297.873912,50.060808 300.403992,48.537048 C302.930712,47.014968 305.662392,45.785208 308.602392,44.847768 C311.539032,43.912008 314.443752,43.441608 317.313192,43.441608 C320.864712,43.441608 323.902152,43.821288 326.433912,44.582328 C327.845112,45.005688 329.138712,45.499608 330.316392,46.065768 C331.826712,46.791528 332.607912,48.481608 332.127432,50.087688 L326.803512,67.882248 C326.291112,69.595848 324.527112,70.607208 322.789992,70.183848 L320.285112,69.574008 C318.301032,69.096888 315.878472,68.856648 313.009032,68.856648 C309.319752,68.856648 305.969832,69.579048 302.964312,71.020488 C299.957112,72.461928 297.396792,74.489688 295.278312,77.100408 C293.159832,79.709448 291.520152,82.765368 290.360952,86.269848 C289.198392,89.770968 288.617112,93.582888 288.617112,97.700568 L288.617112,143.791368 C288.617112,145.646088 287.113512,147.151368 285.257112,147.151368 L265.129032,147.151368 C263.274312,147.151368 261.769032,145.646088 261.769032,143.791368 L261.769032,50.080968 C261.769032,48.226248 263.274312,46.720968 265.129032,46.720968" id="Fill-8"></path>
            <path d="M402.942456,107.807112 C402.996216,106.935192 402.473736,106.113672 401.675736,105.757512 C398.942376,104.537832 396.135096,103.543272 393.250536,102.777192 C389.902296,101.891832 386.248296,101.444952 382.288536,101.444952 C375.862536,101.444952 370.911576,102.847752 367.427256,105.646632 C363.944616,108.448872 362.202456,111.899592 362.202456,115.997112 C362.202456,120.096312 363.874056,123.377352 367.223976,125.835192 C370.568856,128.294712 374.429496,129.524472 378.802536,129.524472 C382.355736,129.524472 385.635096,128.877672 388.640616,127.579032 C391.642776,126.280392 394.206456,124.573512 396.326616,122.453352 C398.443416,120.336552 400.083096,117.877032 401.245656,115.074792 C402.218376,112.726152 402.784536,110.301912 402.942456,107.807112 L402.942456,107.807112 Z M402.986136,136.493112 L401.348136,136.493112 C398.203176,140.321832 394.411416,143.599512 389.972856,146.332872 C385.530936,149.064552 379.829016,150.430392 372.858696,150.430392 C367.664136,150.430392 362.780376,149.575272 358.205736,147.868392 C353.624376,146.161512 349.627656,143.804472 346.213896,140.797272 C342.798456,137.795112 340.133976,134.171352 338.220456,129.934392 C336.305256,125.700792 335.351016,121.053912 335.351016,115.997112 C335.351016,110.805912 336.375816,106.127112 338.425416,101.959032 C340.475016,97.790952 343.344456,94.204152 347.033736,91.196952 C350.723016,88.193112 355.060776,85.903272 360.048696,84.330792 C365.034936,82.761672 370.466376,81.973752 376.343016,81.973752 C382.903416,81.973752 388.297896,82.486152 392.534856,83.510952 C395.416056,84.208152 397.946136,84.920472 400.133496,85.649592 C401.537976,86.118312 402.986136,85.093512 402.986136,83.615112 C402.986136,78.284472 400.867656,73.877832 396.634056,70.393512 C392.397096,66.909192 387.135336,65.167032 380.852136,65.167032 C372.156456,65.167032 364.719096,68.575752 358.540056,75.394872 C357.804216,76.204632 356.601336,76.382712 355.697496,75.766152 L339.762696,64.862952 C338.716056,64.147272 338.490936,62.665512 339.320856,61.704552 C349.829256,49.529592 363.879096,43.441272 381.467016,43.441272 C397.043976,43.441272 408.929976,47.098632 417.130056,54.406632 C425.328456,61.717992 429.427656,72.545592 429.427656,86.892792 L429.427656,144.997272 C429.427656,146.186712 428.461656,147.151032 427.272216,147.151032 L405.143256,147.151032 C403.952136,147.151032 402.986136,146.186712 402.986136,144.997272 L402.986136,136.493112 Z" id="Fill-10"></path>
            <path d="M448.765128,124.049352 L493.884888,75.319272 C495.877368,73.167192 494.351928,69.676152 491.420328,69.676152 L452.869368,69.676152 C451.014648,69.676152 449.509368,68.170872 449.509368,66.316152 L449.509368,50.080632 C449.509368,48.225912 451.014648,46.720632 452.869368,46.720632 L528.748248,46.720632 C530.604648,46.720632 532.108248,48.225912 532.108248,50.080632 L532.108248,67.539192 C532.108248,68.385912 531.790728,69.202392 531.214488,69.822312 L486.094728,118.554072 C484.102248,120.704472 485.627688,124.195512 488.559288,124.195512 L529.569768,124.195512 C531.424488,124.195512 532.929768,125.699112 532.929768,127.555512 L532.929768,143.791032 C532.929768,145.645752 531.424488,147.151032 529.569768,147.151032 L451.229688,147.151032 C449.373288,147.151032 447.869688,145.645752 447.869688,143.791032 L447.869688,126.332472 C447.869688,125.485752 448.188888,124.670952 448.765128,124.049352" id="Fill-12"></path>
            <path d="M576.1728,59.837736 L577.81248,59.837736 C580.95408,54.784296 585.19104,50.787576 590.52,47.847576 C595.84896,44.910936 601.9272,43.440936 608.76144,43.440936 C615.04296,43.440936 620.57856,44.465736 625.36152,46.515336 C630.1428,48.564936 634.074,51.469656 637.1484,55.226136 C640.2228,58.985976 642.54288,63.495096 644.11704,68.753496 C645.68616,74.015256 646.47408,79.858296 646.47408,86.279256 L646.47408,143.790696 C646.47408,145.647096 644.9688,147.150696 643.11408,147.150696 L622.98264,147.150696 C621.12792,147.150696 619.62264,145.647096 619.62264,143.790696 L619.62264,89.556936 C619.62264,82.316136 618.01488,76.951896 614.80608,73.467576 C611.59392,69.983256 606.91512,68.241096 600.768,68.241096 C597.07872,68.241096 593.83128,69.029016 591.0324,70.598136 C588.23016,72.170616 585.83784,74.287416 583.8588,76.951896 C581.8764,79.616376 580.37448,82.761336 579.34968,86.380056 C578.32488,90.003816 577.81248,93.861096 577.81248,97.961976 L577.81248,143.790696 C577.81248,145.647096 576.3072,147.150696 574.45248,147.150696 L554.32272,147.150696 C552.468,147.150696 550.96272,145.647096 550.96272,143.790696 L550.96272,50.080296 C550.96272,48.225576 552.468,46.720296 554.32272,46.720296 L572.8128,46.720296 C574.66752,46.720296 576.1728,48.225576 576.1728,50.080296 L576.1728,59.837736 Z" id="Fill-14"></path>
            <path d="M48.484632,120.690864 C56.545272,120.690864 63.649992,119.563584 69.800472,117.309024 C75.949272,115.056144 81.073272,111.879264 85.172472,107.778384 C89.269992,103.679184 92.344392,98.729904 94.395672,92.920464 C96.445272,87.114384 97.470072,80.658144 97.470072,73.550064 C97.470072,66.447024 96.445272,59.990784 94.395672,54.181344 C92.344392,48.375264 89.269992,43.420944 85.172472,39.321744 C81.073272,35.222544 75.949272,32.045664 69.800472,29.791104 C63.649992,27.536544 56.545272,26.409264 48.484632,26.409264 L31.143672,26.409264 C29.287272,26.409264 27.783672,27.914544 27.783672,29.769264 L27.783672,117.330864 C27.783672,119.185584 29.287272,120.690864 31.143672,120.690864 L48.484632,120.690864 Z M0.114072,3.534384 C0.114072,1.679664 1.619352,0.174384 3.474072,0.174384 L49.714392,0.174384 C61.328232,0.174384 71.777832,1.951824 81.073272,5.503344 C90.363672,9.058224 98.289912,14.079744 104.848632,20.567904 C111.405672,27.059424 116.428872,34.812624 119.913192,43.830864 C123.397512,52.849104 125.139672,62.757744 125.139672,73.550064 C125.139672,84.483504 123.397512,94.457664 119.913192,103.475904 C116.428872,112.492464 111.405672,120.215424 104.848632,126.634704 C98.289912,133.059024 90.363672,138.045264 81.073272,141.596784 C71.777832,145.153344 61.328232,146.925744 49.714392,146.925744 L3.474072,146.925744 C1.619352,146.925744 0.114072,145.422144 0.114072,143.565744 L0.114072,3.534384 Z" id="Fill-16"></path>
        </g>
    </g>
</svg>